<mxfile host="app.diagrams.net" modified="2024-03-21T06:25:46.310Z" agent="Mozilla/5.0 (Windows NT 10.0; Win64; x64) AppleWebKit/537.36 (KHTML, like Gecko) Chrome/122.0.0.0 Safari/537.36 Edg/122.0.0.0" version="24.0.7" etag="MWri1eWdOX8ytsE1UTCX" type="github">
  <diagram name="Page-1" id="gjM-m6G8FT53Hx5peR2M">
    <mxGraphModel>
      <root>
        <mxCell id="0" />
        <mxCell id="1" parent="0" />
      </root>
    </mxGraphModel>
  </diagram>
</mxfile>
